<svg width="16" height="12" viewBox="0 0 16 12" fill="none" xmlns="http://www.w3.org/2000/svg">
<path d="M1.14286 0.285706H6.85714C7.16025 0.285706 7.45094 0.406114 7.66527 0.620441C7.87959 0.834768 8 1.12546 8 1.42856C8 1.73167 7.87959 2.02236 7.66527 2.23668C7.45094 2.45101 7.16025 2.57142 6.85714 2.57142H1.14286C0.839753 2.57142 0.549063 2.45101 0.334735 2.23668C0.120408 2.02236 0 1.73167 0 1.42856C0 1.12546 0.120408 0.834768 0.334735 0.620441C0.549063 0.406114 0.839753 0.285706 1.14286 0.285706ZM9.14286 9.42856H14.8571C15.1602 9.42856 15.4509 9.54897 15.6653 9.7633C15.8796 9.97763 16 10.2683 16 10.5714C16 10.8745 15.8796 11.1652 15.6653 11.3795C15.4509 11.5939 15.1602 11.7143 14.8571 11.7143H9.14286C8.83975 11.7143 8.54906 11.5939 8.33474 11.3795C8.12041 11.1652 8 10.8745 8 10.5714C8 10.2683 8.12041 9.97763 8.33474 9.7633C8.54906 9.54897 8.83975 9.42856 9.14286 9.42856ZM1.14286 4.85713H14.8571C15.1602 4.85713 15.4509 4.97754 15.6653 5.19187C15.8796 5.4062 16 5.69689 16 5.99999C16 6.3031 15.8796 6.59379 15.6653 6.80811C15.4509 7.02244 15.1602 7.14285 14.8571 7.14285H1.14286C0.839753 7.14285 0.549063 7.02244 0.334735 6.80811C0.120408 6.59379 0 6.3031 0 5.99999C0 5.69689 0.120408 5.4062 0.334735 5.19187C0.549063 4.97754 0.839753 4.85713 1.14286 4.85713Z" fill="#EDEDF5"/>
</svg>
