<svg width="30" height="30" viewBox="0 0 30 30" fill="none" xmlns="http://www.w3.org/2000/svg">
<path d="M15 7.8C14.6817 7.8 14.3765 7.92643 14.1514 8.15147C13.9264 8.37652 13.8 8.68174 13.8 9V11.4C13.8 11.7183 13.9264 12.0235 14.1514 12.2485C14.3765 12.4736 14.6817 12.6 15 12.6C15.3182 12.6 15.6235 12.4736 15.8485 12.2485C16.0735 12.0235 16.2 11.7183 16.2 11.4V9C16.2 8.68174 16.0735 8.37652 15.8485 8.15147C15.6235 7.92643 15.3182 7.8 15 7.8ZM15 3C12.7722 3 10.6356 3.885 9.06028 5.4603C7.48497 7.03561 6.59998 9.17218 6.59998 11.4V18.6C6.59998 20.8278 7.48497 22.9644 9.06028 24.5397C10.6356 26.115 12.7722 27 15 27C17.2278 27 19.3644 26.115 20.9397 24.5397C22.515 22.9644 23.4 20.8278 23.4 18.6V11.4C23.4 9.17218 22.515 7.03561 20.9397 5.4603C19.3644 3.885 17.2278 3 15 3ZM21 18.6C21 20.1913 20.3678 21.7174 19.2426 22.8426C18.1174 23.9679 16.5913 24.6 15 24.6C13.4087 24.6 11.8826 23.9679 10.7573 22.8426C9.63212 21.7174 8.99998 20.1913 8.99998 18.6V11.4C8.99998 9.8087 9.63212 8.28258 10.7573 7.15736C11.8826 6.03214 13.4087 5.4 15 5.4C16.5913 5.4 18.1174 6.03214 19.2426 7.15736C20.3678 8.28258 21 9.8087 21 11.4V18.6Z" fill="#EDEDF5"/>
</svg>
