<svg width="16" height="12" viewBox="0 0 16 12" fill="none" xmlns="http://www.w3.org/2000/svg">
<path d="M6.44444 5.47919C7.32778 5.05696 7.78889 4.41807 7.78889 3.42363C7.78889 1.46252 6.32778 0.984741 4.64167 0.984741H0V10.8292H4.77222C6.56111 10.8292 8.24167 9.97085 8.24167 7.97085C8.24167 6.73474 7.65556 5.82085 6.44444 5.47919ZM2.16389 2.6653H4.19444C4.975 2.6653 5.67778 2.88474 5.67778 3.7903C5.67778 4.62641 5.13056 4.96252 4.35833 4.96252H2.16389V2.6653ZM4.47778 9.15696H2.16389V6.44585H4.52222C5.475 6.44585 6.07778 6.84307 6.07778 7.85141C6.07778 8.84585 5.35833 9.15696 4.47778 9.15696ZM14.4361 2.47085H10.4444V1.50141H14.4361V2.47085ZM16 7.36807C16 5.25974 14.7667 3.50141 12.5306 3.50141C10.3583 3.50141 8.88333 5.13474 8.88333 7.27363C8.88333 9.49307 10.2806 11.0153 12.5306 11.0153C14.2333 11.0153 15.3361 10.2486 15.8667 8.61807H14.1389C13.9528 9.22641 13.1861 9.54863 12.5917 9.54863C11.4444 9.54863 10.8417 8.87641 10.8417 7.73474H15.9833C15.9917 7.61807 16 7.49307 16 7.36807ZM10.8444 6.50141C10.9083 5.5653 11.5306 4.97919 12.4694 4.97919C13.4528 4.97919 13.9472 5.55696 14.0306 6.50141H10.8444Z" fill="#EDEDF5"/>
</svg>
