<svg width="16" height="14" viewBox="0 0 16 14" fill="none" xmlns="http://www.w3.org/2000/svg">
<path d="M1.89539 3.24232C1.91524 3.04716 1.83916 2.85199 1.69361 2.71968L0.201778 0.920217V0.652283H4.83936L8.42506 8.51501L11.5774 0.652283H16V0.920217L14.7232 2.14412C14.614 2.22681 14.5578 2.36574 14.5809 2.50136V11.4987C14.5578 11.6343 14.614 11.7732 14.7232 11.8559L15.9702 13.0798V13.3478H9.69526V13.0798L10.9886 11.8262C11.1143 11.7005 11.1143 11.6608 11.1143 11.4689V4.19828L7.51871 13.3246H7.03246L2.85135 4.19828V10.3145C2.81497 10.5725 2.90097 10.8305 3.0829 11.0157L4.76328 13.0534V13.3213H0V13.0567L1.68038 11.0157C1.859 10.8305 1.9417 10.5692 1.89539 10.3145V3.24232Z" fill="#EDEDF5"/>
</svg>
